<svg id="Layer_1" data-name="Layer 1" xmlns="http://www.w3.org/2000/svg" viewBox="0 0 512 512"><defs><style>.cls-1{fill:#15c8ff;}.cls-2{fill:#dd0505;}.cls-3{fill:#ffbc00;}</style></defs><title>merge word</title><polygon class="cls-1" points="10 10 10 313.32 53 313.32 198.68 313.32 198.68 273.32 50 273.32 50 50 273.32 50 273.32 198.68 313.32 198.68 313.32 53 313.32 10 10 10"/><polygon class="cls-2" points="459 198.68 313.32 198.68 313.32 238.68 462 238.68 462 462 238.68 462 238.68 313.32 198.68 313.32 198.68 459 198.68 502 502 502 502 198.68 459 198.68"/><path d="M93,198.68a10,10,0,0,1-10-10V93A10,10,0,0,1,93,83H200a10,10,0,0,1,0,20H103v85.68A10,10,0,0,1,93,198.68Z"/><path d="M238.74,103a9.93,9.93,0,0,1-2-.2,9.39,9.39,0,0,1-1.87-.57,10.24,10.24,0,0,1-1.73-.92A9.95,9.95,0,0,1,228.74,93a9.85,9.85,0,0,1,.2-2,10.1,10.1,0,0,1,.57-1.87,9.87,9.87,0,0,1,.92-1.73,9.57,9.57,0,0,1,1.24-1.52,10,10,0,0,1,1.52-1.24,10.24,10.24,0,0,1,1.73-.92,9.39,9.39,0,0,1,1.87-.57,9.9,9.9,0,0,1,3.91,0,9.39,9.39,0,0,1,1.87.57,10,10,0,0,1,3.25,2.16,10.15,10.15,0,0,1,1.24,1.52,9.87,9.87,0,0,1,.92,1.73,10.1,10.1,0,0,1,.57,1.87,9.84,9.84,0,0,1,.19,2,10.07,10.07,0,0,1-2.92,7.07,10,10,0,0,1-3.25,2.16,9.39,9.39,0,0,1-1.87.57A10,10,0,0,1,238.74,103Z"/><path d="M273.26,429a10,10,0,0,1-2-.2,9.39,9.39,0,0,1-1.87-.57,10,10,0,0,1-3.25-2.16,9.57,9.57,0,0,1-1.24-1.52,9.87,9.87,0,0,1-.92-1.73,10.1,10.1,0,0,1-.57-1.87,9.61,9.61,0,0,1,0-3.9,10.44,10.44,0,0,1,.57-1.88,10.15,10.15,0,0,1,.92-1.72,9.57,9.57,0,0,1,1.24-1.52,10,10,0,0,1,3.25-2.16,9.39,9.39,0,0,1,1.87-.57,9.9,9.9,0,0,1,3.91,0,9.39,9.39,0,0,1,1.87.57,10.24,10.24,0,0,1,1.73.92,10,10,0,0,1,1.52,1.24,9.57,9.57,0,0,1,1.24,1.52,10.15,10.15,0,0,1,.92,1.72,10.44,10.44,0,0,1,.57,1.88,9.61,9.61,0,0,1,0,3.9,10.1,10.1,0,0,1-.57,1.87,9.87,9.87,0,0,1-.92,1.73,9.57,9.57,0,0,1-1.24,1.52,10,10,0,0,1-1.52,1.24,10.24,10.24,0,0,1-1.73.92,9.39,9.39,0,0,1-1.87.57A9.93,9.93,0,0,1,273.26,429Z"/><path d="M419,429H312a10,10,0,0,1,0-20h97V323.32a10,10,0,1,1,20,0V419A10,10,0,0,1,419,429Z"/><path d="M93,198.68a10,10,0,0,1-10-10V93A10,10,0,0,1,93,83H200a10,10,0,0,1,0,20H103v85.68A10,10,0,0,1,93,198.68Z"/><path d="M238.74,103a9.93,9.93,0,0,1-2-.2,9.39,9.39,0,0,1-1.87-.57,10.24,10.24,0,0,1-1.73-.92A9.95,9.95,0,0,1,228.74,93a9.85,9.85,0,0,1,.2-2,10.1,10.1,0,0,1,.57-1.87,9.87,9.87,0,0,1,.92-1.73,9.57,9.57,0,0,1,1.24-1.52,10,10,0,0,1,1.52-1.24,10.24,10.24,0,0,1,1.73-.92,9.39,9.39,0,0,1,1.87-.57,9.9,9.9,0,0,1,3.91,0,9.39,9.39,0,0,1,1.87.57,10,10,0,0,1,3.25,2.16,10.15,10.15,0,0,1,1.24,1.52,9.87,9.87,0,0,1,.92,1.73,10.1,10.1,0,0,1,.57,1.87,9.84,9.84,0,0,1,.19,2,10.07,10.07,0,0,1-2.92,7.07,10,10,0,0,1-3.25,2.16,9.39,9.39,0,0,1-1.87.57A10,10,0,0,1,238.74,103Z"/><path d="M273.26,429a10,10,0,0,1-2-.2,9.39,9.39,0,0,1-1.87-.57,10,10,0,0,1-3.25-2.16,9.57,9.57,0,0,1-1.24-1.52,9.87,9.87,0,0,1-.92-1.73,10.1,10.1,0,0,1-.57-1.87,9.61,9.61,0,0,1,0-3.9,10.44,10.44,0,0,1,.57-1.88,10.15,10.15,0,0,1,.92-1.72,9.57,9.57,0,0,1,1.24-1.52,10,10,0,0,1,3.25-2.16,9.39,9.39,0,0,1,1.87-.57,9.9,9.9,0,0,1,3.91,0,9.39,9.39,0,0,1,1.87.57,10.24,10.24,0,0,1,1.73.92,10,10,0,0,1,1.52,1.24,9.57,9.57,0,0,1,1.24,1.52,10.15,10.15,0,0,1,.92,1.72,10.44,10.44,0,0,1,.57,1.88,9.61,9.61,0,0,1,0,3.9,10.1,10.1,0,0,1-.57,1.87,9.87,9.87,0,0,1-.92,1.73,9.57,9.57,0,0,1-1.24,1.52,10,10,0,0,1-1.52,1.24,10.24,10.24,0,0,1-1.73.92,9.39,9.39,0,0,1-1.87.57A9.93,9.93,0,0,1,273.26,429Z"/><path d="M419,429H312a10,10,0,0,1,0-20h97V323.32a10,10,0,1,1,20,0V419A10,10,0,0,1,419,429Z"/><rect class="cls-3" x="198.68" y="198.68" width="114.64" height="114.64"/><path d="M502,188.68H323.32V10a10,10,0,0,0-10-10H10A10,10,0,0,0,0,10V313.32a10,10,0,0,0,10,10H188.68V502a10,10,0,0,0,10,10H502a10,10,0,0,0,10-10V198.68A10,10,0,0,0,502,188.68Zm-238.68,0H198.68a10,10,0,0,0-10,10v64.64H60V60H263.32Zm-54.64,84.64V208.68h94.64v94.64H208.68Zm40,50h64.64a10,10,0,0,0,10-10V248.68H452V452H248.68ZM20,20H303.32V188.68h-20V50a10,10,0,0,0-10-10H50A10,10,0,0,0,40,50V273.32a10,10,0,0,0,10,10H188.68v20H20ZM492,492H208.68V323.32h20V462a10,10,0,0,0,10,10H462a10,10,0,0,0,10-10V238.68a10,10,0,0,0-10-10H323.32v-20H492Z"/></svg>